<svg width="22" height="22" viewBox="0 0 22 22" fill="none" xmlns="http://www.w3.org/2000/svg">
<path d="M18.9474 4.46256H15.7895V2.23128C15.7895 1.00073 14.8453 0 13.6842 0H7.36842C6.20737 0 5.26316 1.00073 5.26316 2.23128V4.46256H2.10526C0.944211 4.46256 0 5.46328 0 6.69383V10.0407H21.0526V6.69383C21.0526 5.46328 20.1084 4.46256 18.9474 4.46256ZM7.36842 2.23128H13.6842V4.46256H7.36842V2.23128ZM12.6316 13.3877H8.42105V11.1564H0V18.9659C0 20.1964 0.944211 21.1971 2.10526 21.1971H18.9474C20.1084 21.1971 21.0526 20.1964 21.0526 18.9659V11.1564H12.6316V13.3877Z" fill="black"/>
</svg>
